<svg width="24" height="24" viewBox="0 0 24 24" fill="none" xmlns="http://www.w3.org/2000/svg">
<path opacity="0.1" fill-rule="evenodd" clip-rule="evenodd" d="M0 12C0 5.37258 5.37258 0 12 0C18.6274 0 24 5.37258 24 12C24 18.6274 18.6274 24 12 24C5.37258 24 0 18.6274 0 12Z" fill="white"/>
<path fill-rule="evenodd" clip-rule="evenodd" d="M4 12C4 7.58172 7.58172 4 12 4C16.4183 4 20 7.58172 20 12C20 16.4183 16.4183 20 12 20C7.58172 20 4 16.4183 4 12ZM7.84053 10.6264H9.65351V16.0736H7.84053V10.6264ZM8.75902 8C9.37923 8 9.76116 8.4068 9.77293 8.9409C9.77293 9.46393 9.37923 9.88245 8.74707 9.88245H8.73548C8.12683 9.88245 7.73334 9.46393 7.73334 8.9409C7.73334 8.4068 8.13881 8 8.75902 8ZM14.1043 10.4972C15.2974 10.4972 16.1918 11.276 16.1918 12.9491L16.1917 16.0724H14.3788V13.1581C14.3788 12.4261 14.1164 11.9266 13.4601 11.9266C12.9593 11.9266 12.6609 12.2633 12.5299 12.5886C12.482 12.7051 12.4702 12.8675 12.4702 13.0303V16.0725H10.657C10.657 16.0725 10.6809 11.1364 10.657 10.6253H12.4702V11.3969C12.7108 11.026 13.1418 10.4972 14.1043 10.4972Z" fill="white"/>
</svg>
